<svg xmlns="http://www.w3.org/2000/svg" viewBox="0 0 356.66 72" width="356.66" height="72" role="img" aria-labelledby="t">
  <title id="t">TrustTunnel</title>
  <g transform="scale(0.28)">
    <path d="M 134.3 18.45 L 222.15 43.46 Q 228 46.16 228 50.66 L 228 132 C 228 192.32, 146 246, 131 247.1 Q 128 248 125 247.1 C 110 246, 28 192.32, 28 132 L 28 50.66 Q 28 46.16 33.85 43.46 L 121.7 18.45 Q 128 16 134.3 18.45 Z" fill="#d9e8e7"></path>
    <path d="M 133.04 41.16 L 203.32 61.17 Q 208 63.33 208 66.93 L 208 132 C 208 180.26, 142.4 223.2, 130.4 224.08 Q 128 224.8 125.6 224.08 C 113.6 223.2, 48 180.26, 48 132 L 48 66.93 Q 48 63.33 52.68 61.17 L 122.96 41.16 Q 128 39.2 133.04 41.16 Z" fill="#b3d1cf"></path>
    <path d="M 131.91 61.6 L 186.37 77.11 Q 190 78.78 190 81.57 L 190 132 C 190 169.4, 139.16 202.68, 129.86 203.36 Q 128 203.92 126.14 203.36 C 116.84 202.68, 66 169.4, 66 132 L 66 81.57 Q 66 78.78 69.63 77.11 L 124.09 61.6 Q 128 60.08 131.91 61.6 Z" fill="#80b3b0"></path>
    <path d="M 130.9 79.77 L 171.31 91.27 Q 174 92.51 174 94.58 L 174 132 C 174 159.75, 136.28 184.44, 129.38 184.95 Q 128 185.36 126.62 184.95 C 119.72 184.44, 82 159.75, 82 132 L 82 94.58 Q 82 92.51 84.69 91.27 L 125.1 79.77 Q 128 78.64 130.9 79.77 Z" fill="#4d9490"></path>
    <path d="M 130.02 95.66 L 158.13 103.67 Q 160 104.53 160 105.97 L 160 132 C 160 151.3, 133.76 168.48, 128.96 168.83 Q 128 169.12 127.04 168.83 C 122.24 168.48, 96 151.3, 96 132 L 96 105.97 Q 96 104.53 97.87 103.67 L 125.98 95.66 Q 128 94.88 130.02 95.66 Z" fill="#236260"></path>
    <path d="M 129.26 109.29 L 146.83 114.29 Q 148 114.83 148 115.73 L 148 132 C 148 144.06, 131.6 154.8, 128.6 155.02 Q 128 155.2 127.4 155.02 C 124.4 154.8, 108 144.06, 108 132 L 108 115.73 Q 108 114.83 109.17 114.29 L 126.74 109.29 Q 128 108.8 129.26 109.29 Z" fill="#0b2221"></path>
  </g>
  <g transform="translate(88 54)">
    <path fill="#161616" d="M11.54 0V-33.41H19.1V0ZM0.96 -27.29V-33.89H29.71V-27.29ZM29.57 0V-23.33H36.91V0ZM36.91 -12.79 33.82 -15.19Q34.73 -19.3 36.91 -21.55Q39.1 -23.81 42.89 -23.81Q44.57 -23.81 45.85 -23.3Q47.14 -22.8 48.1 -21.74L43.73 -16.22Q43.25 -16.75 42.54 -17.03Q41.83 -17.3 40.9 -17.3Q39.07 -17.3 37.99 -16.18Q36.91 -15.06 36.91 -12.79ZM61.32 0.53Q58.14 0.53 55.66 -0.79Q53.18 -2.11 51.78 -4.45Q50.38 -6.78 50.38 -9.81V-23.33H57.72V-9.89Q57.72 -8.68 58.15 -7.81Q58.58 -6.94 59.4 -6.47Q60.22 -6 61.33 -6Q62.98 -6 63.94 -7.03Q64.9 -8.07 64.9 -9.89V-23.33H72.24V-9.82Q72.24 -6.74 70.85 -4.42Q69.46 -2.09 67 -0.78Q64.54 0.53 61.32 0.53ZM86.28 0.6Q84.22 0.6 82.22 0.06Q80.23 -0.48 78.54 -1.45Q76.85 -2.42 75.65 -3.74L79.8 -7.97Q80.98 -6.7 82.56 -6.01Q84.14 -5.33 86.02 -5.33Q87.31 -5.33 88 -5.7Q88.68 -6.07 88.68 -6.77Q88.68 -7.63 87.85 -8.09Q87.02 -8.54 85.73 -8.89Q84.43 -9.24 82.99 -9.68Q81.55 -10.13 80.24 -10.9Q78.94 -11.66 78.12 -13.02Q77.3 -14.38 77.3 -16.51Q77.3 -18.74 78.46 -20.41Q79.61 -22.08 81.72 -23.03Q83.83 -23.98 86.69 -23.98Q89.64 -23.98 92.17 -22.96Q94.7 -21.94 96.29 -19.9L92.11 -15.67Q91.01 -16.97 89.64 -17.51Q88.27 -18.05 86.95 -18.05Q85.7 -18.05 85.09 -17.68Q84.48 -17.3 84.48 -16.66Q84.48 -15.91 85.3 -15.48Q86.11 -15.05 87.41 -14.71Q88.7 -14.38 90.13 -13.91Q91.56 -13.44 92.86 -12.61Q94.15 -11.78 94.97 -10.42Q95.78 -9.05 95.78 -6.86Q95.78 -3.43 93.22 -1.42Q90.65 0.6 86.28 0.6ZM104.06 0V-32.98H111.41V0ZM98.78 -17.09V-23.33H116.69V-17.09Z"/>
    <path fill="#2d7a76" d="M129.82 0V-33.41H137.38V0ZM119.23 -27.29V-33.89H147.98V-27.29ZM158.14 0.53Q154.95 0.53 152.48 -0.79Q150 -2.11 148.6 -4.45Q147.19 -6.78 147.19 -9.81V-23.33H154.54V-9.89Q154.54 -8.68 154.97 -7.81Q155.39 -6.94 156.21 -6.47Q157.03 -6 158.14 -6Q159.79 -6 160.75 -7.03Q161.71 -8.07 161.71 -9.89V-23.33H169.06V-9.82Q169.06 -6.74 167.66 -4.42Q166.27 -2.09 163.81 -0.78Q161.36 0.53 158.14 0.53ZM190.03 0V-13.27Q190.03 -15.12 188.9 -16.24Q187.78 -17.35 186.03 -17.35Q184.84 -17.35 183.92 -16.85Q183 -16.34 182.48 -15.42Q181.97 -14.5 181.97 -13.27L179.11 -14.66Q179.11 -17.42 180.32 -19.48Q181.54 -21.53 183.67 -22.67Q185.8 -23.81 188.51 -23.81Q191.06 -23.81 193.07 -22.58Q195.07 -21.36 196.22 -19.34Q197.38 -17.33 197.38 -14.93V0ZM174.62 0V-23.33H181.97V0ZM218.45 0V-13.27Q218.45 -15.12 217.32 -16.24Q216.19 -17.35 214.45 -17.35Q213.26 -17.35 212.34 -16.85Q211.42 -16.34 210.9 -15.42Q210.38 -14.5 210.38 -13.27L207.53 -14.66Q207.53 -17.42 208.74 -19.48Q209.95 -21.53 212.09 -22.67Q214.22 -23.81 216.92 -23.81Q219.48 -23.81 221.48 -22.58Q223.49 -21.36 224.64 -19.34Q225.79 -17.33 225.79 -14.93V0ZM203.04 0V-23.33H210.38V0ZM242.95 0.53Q239.16 0.53 236.22 -1.03Q233.28 -2.59 231.6 -5.36Q229.92 -8.14 229.92 -11.66Q229.92 -15.17 231.56 -17.92Q233.21 -20.66 236.05 -22.26Q238.9 -23.86 242.42 -23.86Q245.88 -23.86 248.53 -22.36Q251.18 -20.86 252.7 -18.22Q254.21 -15.58 254.21 -12.19Q254.21 -11.54 254.14 -10.85Q254.06 -10.15 253.87 -9.26L233.76 -9.19V-14.23L250.75 -14.3L247.58 -12.17Q247.54 -14.18 246.95 -15.52Q246.36 -16.85 245.24 -17.54Q244.13 -18.24 242.47 -18.24Q240.74 -18.24 239.47 -17.45Q238.2 -16.66 237.52 -15.2Q236.83 -13.75 236.83 -11.71Q236.83 -9.65 237.56 -8.17Q238.3 -6.7 239.66 -5.92Q241.03 -5.14 242.93 -5.14Q244.66 -5.14 246.05 -5.72Q247.44 -6.31 248.5 -7.51L252.53 -3.48Q250.8 -1.49 248.35 -0.48Q245.9 0.53 242.95 0.53ZM258.72 0V-34.85H266.06V0Z"/>
  </g>
</svg>
