<svg xmlns="http://www.w3.org/2000/svg" viewBox="0 0 256 256" width="256" height="256">
  <path d="M 134.3 18.45 L 222.15 43.46 Q 228 46.16 228 50.66 L 228 132 C 228 192.32, 146 246, 131 247.1 Q 128 248 125 247.1 C 110 246, 28 192.32, 28 132 L 28 50.66 Q 28 46.16 33.85 43.46 L 121.7 18.45 Q 128 16 134.3 18.45 Z" fill="#d9e8e7"></path>
  <path d="M 133.04 41.16 L 203.32 61.17 Q 208 63.33 208 66.93 L 208 132 C 208 180.26, 142.4 223.2, 130.4 224.08 Q 128 224.8 125.6 224.08 C 113.6 223.2, 48 180.26, 48 132 L 48 66.93 Q 48 63.33 52.68 61.17 L 122.96 41.16 Q 128 39.2 133.04 41.16 Z" fill="#b3d1cf"></path>
  <path d="M 131.91 61.6 L 186.37 77.11 Q 190 78.78 190 81.57 L 190 132 C 190 169.4, 139.16 202.68, 129.86 203.36 Q 128 203.92 126.14 203.36 C 116.84 202.68, 66 169.4, 66 132 L 66 81.57 Q 66 78.78 69.63 77.11 L 124.09 61.6 Q 128 60.08 131.91 61.6 Z" fill="#80b3b0"></path>
  <path d="M 130.9 79.77 L 171.31 91.27 Q 174 92.51 174 94.58 L 174 132 C 174 159.75, 136.28 184.44, 129.38 184.95 Q 128 185.36 126.62 184.95 C 119.72 184.44, 82 159.75, 82 132 L 82 94.58 Q 82 92.51 84.69 91.27 L 125.1 79.77 Q 128 78.64 130.9 79.77 Z" fill="#4d9490"></path>
  <path d="M 130.02 95.66 L 158.13 103.67 Q 160 104.53 160 105.97 L 160 132 C 160 151.3, 133.76 168.48, 128.96 168.83 Q 128 169.12 127.04 168.83 C 122.24 168.48, 96 151.3, 96 132 L 96 105.97 Q 96 104.53 97.87 103.67 L 125.98 95.66 Q 128 94.88 130.02 95.66 Z" fill="#236260"></path>
  <path d="M 129.26 109.29 L 146.83 114.29 Q 148 114.83 148 115.73 L 148 132 C 148 144.06, 131.6 154.8, 128.6 155.02 Q 128 155.2 127.4 155.02 C 124.4 154.8, 108 144.06, 108 132 L 108 115.73 Q 108 114.83 109.17 114.29 L 126.74 109.29 Q 128 108.8 129.26 109.29 Z" fill="#0b2221"></path>
</svg>